<?xml version="1.0" encoding="iso-8859-1"?>
<!-- Generator: Adobe Illustrator 19.0.0, SVG Export Plug-In . SVG Version: 6.00 Build 0)  -->
<svg version="1.1" id="Capa_1" xmlns="http://www.w3.org/2000/svg" xmlns:xlink="http://www.w3.org/1999/xlink" x="0px" y="0px"
	 viewBox="0 0 496 496" style="enable-background:new 0 0 496 496;" xml:space="preserve">
<g>
	
		<linearGradient id="SVGID_1_" gradientUnits="userSpaceOnUse" x1="-46.7191" y1="567.7911" x2="10.6299" y2="625.1401" gradientTransform="matrix(8 0 0 -8 399 5013)">
		<stop  offset="0" style="stop-color:#AA6100"/>
		<stop  offset="0.093" style="stop-color:#AC6400"/>
		<stop  offset="0.165" style="stop-color:#B26E00"/>
		<stop  offset="0.231" style="stop-color:#BB7E00"/>
		<stop  offset="0.292" style="stop-color:#C99600"/>
		<stop  offset="0.35" style="stop-color:#DBB400"/>
		<stop  offset="0.405" style="stop-color:#F0D800"/>
		<stop  offset="0.439" style="stop-color:#FFF200"/>
		<stop  offset="0.474" style="stop-color:#FFD705"/>
		<stop  offset="0.519" style="stop-color:#FFBB0A"/>
		<stop  offset="0.565" style="stop-color:#FFA80E"/>
		<stop  offset="0.611" style="stop-color:#FF9C10"/>
		<stop  offset="0.658" style="stop-color:#FF9811"/>
		<stop  offset="0.732" style="stop-color:#FF9A12"/>
		<stop  offset="0.758" style="stop-color:#FFA118"/>
		<stop  offset="0.777" style="stop-color:#FFAC21"/>
		<stop  offset="0.793" style="stop-color:#FFBD2E"/>
		<stop  offset="0.806" style="stop-color:#FFD33F"/>
		<stop  offset="0.809" style="stop-color:#FFDA44"/>
		<stop  offset="0.879" style="stop-color:#DDA928"/>
		<stop  offset="0.96" style="stop-color:#B8750B"/>
		<stop  offset="1" style="stop-color:#AA6100"/>
	</linearGradient>
	<path style="fill:url(#SVGID_1_);" d="M248,496C111.033,496,0,384.967,0,248S111.033,0,248,0s248,111.033,248,248
		C495.846,384.903,384.903,495.846,248,496z M248,16C119.87,16,16,119.87,16,248s103.87,232,232,232s232-103.87,232-232
		C479.855,119.93,376.07,16.145,248,16z"/>
	
		<linearGradient id="SVGID_2_" gradientUnits="userSpaceOnUse" x1="-46.7181" y1="567.7901" x2="10.6309" y2="625.1391" gradientTransform="matrix(8 0 0 -8 399 5013)">
		<stop  offset="0" style="stop-color:#AA6100"/>
		<stop  offset="0.093" style="stop-color:#AC6400"/>
		<stop  offset="0.165" style="stop-color:#B26E00"/>
		<stop  offset="0.231" style="stop-color:#BB7E00"/>
		<stop  offset="0.292" style="stop-color:#C99600"/>
		<stop  offset="0.35" style="stop-color:#DBB400"/>
		<stop  offset="0.405" style="stop-color:#F0D800"/>
		<stop  offset="0.439" style="stop-color:#FFF200"/>
		<stop  offset="0.474" style="stop-color:#FFD705"/>
		<stop  offset="0.519" style="stop-color:#FFBB0A"/>
		<stop  offset="0.565" style="stop-color:#FFA80E"/>
		<stop  offset="0.611" style="stop-color:#FF9C10"/>
		<stop  offset="0.658" style="stop-color:#FF9811"/>
		<stop  offset="0.732" style="stop-color:#FF9A12"/>
		<stop  offset="0.758" style="stop-color:#FFA118"/>
		<stop  offset="0.777" style="stop-color:#FFAC21"/>
		<stop  offset="0.793" style="stop-color:#FFBD2E"/>
		<stop  offset="0.806" style="stop-color:#FFD33F"/>
		<stop  offset="0.809" style="stop-color:#FFDA44"/>
		<stop  offset="0.879" style="stop-color:#DDA928"/>
		<stop  offset="0.96" style="stop-color:#B8750B"/>
		<stop  offset="1" style="stop-color:#AA6100"/>
	</linearGradient>
	<path style="fill:url(#SVGID_2_);" d="M248,448c-110.457,0-200-89.543-200-200S137.543,48,248,48s200,89.543,200,200
		C447.877,358.406,358.406,447.877,248,448z M248,64C146.38,64,64,146.38,64,248s82.38,184,184,184s184-82.38,184-184
		C431.885,146.427,349.573,64.115,248,64z"/>
	
		<linearGradient id="SVGID_3_" gradientUnits="userSpaceOnUse" x1="-46.7156" y1="567.7876" x2="10.6334" y2="625.1366" gradientTransform="matrix(8 0 0 -8 399 5013)">
		<stop  offset="0" style="stop-color:#AA6100"/>
		<stop  offset="0.093" style="stop-color:#AC6400"/>
		<stop  offset="0.165" style="stop-color:#B26E00"/>
		<stop  offset="0.231" style="stop-color:#BB7E00"/>
		<stop  offset="0.292" style="stop-color:#C99600"/>
		<stop  offset="0.35" style="stop-color:#DBB400"/>
		<stop  offset="0.405" style="stop-color:#F0D800"/>
		<stop  offset="0.439" style="stop-color:#FFF200"/>
		<stop  offset="0.474" style="stop-color:#FFD705"/>
		<stop  offset="0.519" style="stop-color:#FFBB0A"/>
		<stop  offset="0.565" style="stop-color:#FFA80E"/>
		<stop  offset="0.611" style="stop-color:#FF9C10"/>
		<stop  offset="0.658" style="stop-color:#FF9811"/>
		<stop  offset="0.732" style="stop-color:#FF9A12"/>
		<stop  offset="0.758" style="stop-color:#FFA118"/>
		<stop  offset="0.777" style="stop-color:#FFAC21"/>
		<stop  offset="0.793" style="stop-color:#FFBD2E"/>
		<stop  offset="0.806" style="stop-color:#FFD33F"/>
		<stop  offset="0.809" style="stop-color:#FFDA44"/>
		<stop  offset="0.879" style="stop-color:#DDA928"/>
		<stop  offset="0.96" style="stop-color:#B8750B"/>
		<stop  offset="1" style="stop-color:#AA6100"/>
	</linearGradient>
	<path style="fill:url(#SVGID_3_);" d="M248,328c-44.183,0-80-35.817-80-80s35.817-80,80-80s80,35.817,80,80
		C327.952,292.163,292.163,327.952,248,328z M248,184c-35.346,0-64,28.654-64,64s28.654,64,64,64s64-28.654,64-64
		C311.96,212.67,283.33,184.04,248,184z"/>
</g>
<g>
</g>
<g>
</g>
<g>
</g>
<g>
</g>
<g>
</g>
<g>
</g>
<g>
</g>
<g>
</g>
<g>
</g>
<g>
</g>
<g>
</g>
<g>
</g>
<g>
</g>
<g>
</g>
<g>
</g>
</svg>
