<?xml version="1.0" encoding="iso-8859-1"?>
<!-- Generator: Adobe Illustrator 19.0.0, SVG Export Plug-In . SVG Version: 6.00 Build 0)  -->
<svg version="1.1" id="Capa_1" xmlns="http://www.w3.org/2000/svg" xmlns:xlink="http://www.w3.org/1999/xlink" x="0px" y="0px"
	 viewBox="0 0 459.743 459.743" style="enable-background:new 0 0 459.743 459.743;" xml:space="preserve">
<path d="M341.292,204.165c-4-6.696-11.045-10.694-18.845-10.694h-77.81L267.31,16.624c0.917-7.153-3.238-13.688-10.104-15.893
	c-6.866-2.202-14.048,0.69-17.467,7.039L117.97,233.915c-3.698,6.868-3.518,14.966,0.482,21.662
	c4,6.696,11.045,10.694,18.845,10.694h77.81l-22.673,176.847c-0.917,7.153,3.238,13.688,10.104,15.893
	c1.54,0.494,3.096,0.732,4.622,0.732c5.276,0,10.193-2.847,12.845-7.771l121.77-226.145
	C345.472,218.96,345.291,210.862,341.292,204.165z M328.567,218.716L207.502,443.538l23.566-183.813
	c0.274-2.138-0.385-4.29-1.809-5.908s-3.475-2.545-5.63-2.545h-86.333c-3.56,0-5.359-2.368-5.967-3.386
	c-0.608-1.018-1.84-3.725-0.153-6.859L252.242,16.202l-23.566,183.815c-0.274,2.138,0.385,4.29,1.809,5.908s3.475,2.545,5.63,2.545
	h86.333c3.56,0,5.359,2.368,5.967,3.386C329.022,212.875,330.254,215.582,328.567,218.716z"/>
<g>
</g>
<g>
</g>
<g>
</g>
<g>
</g>
<g>
</g>
<g>
</g>
<g>
</g>
<g>
</g>
<g>
</g>
<g>
</g>
<g>
</g>
<g>
</g>
<g>
</g>
<g>
</g>
<g>
</g>
</svg>
