<?xml version="1.0"?>
<svg xmlns="http://www.w3.org/2000/svg" xmlns:xlink="http://www.w3.org/1999/xlink" version="1.1" width="512px" height="512px" viewBox="0 0 16 16" class=""><g><path fill="#F73C45" d="M8 4c-2.2 0-4 1.8-4 4s1.8 4 4 4 4-1.8 4-4-1.8-4-4-4z" data-original="#000000" class="active-path" data-old_color="#F83D46"/><path fill="#F73C45" d="M8 1c3.9 0 7 3.1 7 7s-3.1 7-7 7-7-3.1-7-7 3.1-7 7-7zM8 0c-4.4 0-8 3.6-8 8s3.6 8 8 8 8-3.6 8-8-3.6-8-8-8v0z" data-original="#000000" class="active-path" data-old_color="#F83D46"/></g> </svg>
