<?xml version='1.0' encoding='iso-8859-1'?>
<svg version="1.1" xmlns="http://www.w3.org/2000/svg" viewBox="0 0 30 30" xmlns:xlink="http://www.w3.org/1999/xlink" enable-background="new 0 0 30 30">
  <g>
    <g>
      <path fill-rule="evenodd" d="m15,0c-8.284,0-15,6.716-15,15s6.716,15 15,15 15-6.716 15-15-6.716-15-15-15zm0,28c-7.18,0-13-5.82-13-13s5.82-13 13-13 13,5.82 13,13-5.82,13-13,13z"/>
    </g>
  </g>
  <g>
    <g>
      <path d="m15,4c-1.632,0-3.174,0.369-4.566,1.008-0.025,0.01-0.049,0.019-0.073,0.029-0.003,0.002-0.005,0.002-0.008,0.004l.001,.001c-0.336,0.162-0.573,0.498-0.573,0.896 0,0.553 0.447,1 1,1 0.148,0 0.285-0.036 0.412-0.094l.004,.008c1.157-0.542 2.442-0.852 3.803-0.852 0.553,0 1-0.447 1-1 0-0.553-0.447-1-1-1zm-7.094,2.938c-0.304,0-0.567,0.143-0.75,0.356-1.95,1.984-3.156,4.703-3.156,7.706 0,0.553 0.447,1 1,1 0.553,0 1-0.447 1-1 0-2.485 1.008-4.735 2.637-6.364l-.011-.01c0.172-0.18 0.28-0.421 0.28-0.688 0-0.553-0.447-1-1-1z"/>
    </g>
  </g>
</svg>
